<svg xmlns="http://www.w3.org/2000/svg" version="1.1" xmlns:xlink="http://www.w3.org/1999/xlink" xmlns:svgjs="http://svgjs.com/svgjs" width="1920" height="1024" preserveAspectRatio="none" viewBox="0 0 1920 1024">
    <g mask="url(&quot;#SvgjsMask1116&quot;)" fill="none">
        <rect width="1920" height="1024" x="0" y="0" fill="#0e2a47"></rect>
        <path d="M1854.056,677.975C1890.231,676.03,1926.859,666.689,1946.46,636.222C1967.657,603.274,1969.957,561.175,1951.397,526.672C1931.843,490.323,1895.294,466.192,1854.056,464.447C1809.539,462.563,1764.509,479.737,1741.318,517.783C1717.256,557.259,1716.065,609.372,1742.672,647.179C1766.434,680.943,1812.829,680.192,1854.056,677.975" fill="rgba(28, 83, 142, 0.4)" class="triangle-float2"></path>
        <path d="M1347.2 252.91 a329.28 329.28 0 1 0 658.56 0 a329.28 329.28 0 1 0 -658.56 0z" fill="rgba(28, 83, 142, 0.4)" class="triangle-float3"></path>
        <path d="M955.5148566489266 269.0732825115185L1083.0087447071578 241.97362003191816 978.6123069586416 64.28261918437155z" fill="rgba(28, 83, 142, 0.4)" class="triangle-float3"></path>
        <path d="M457.4299169648083 680.733022324898L627.7429143854292 491.5812759514843 438.5911680120156 321.2682785308633 268.2781705913946 510.42002490427706z" fill="rgba(28, 83, 142, 0.4)" class="triangle-float1"></path>
        <path d="M759.38 822.85 a296.47 296.47 0 1 0 592.94 0 a296.47 296.47 0 1 0 -592.94 0z" fill="rgba(28, 83, 142, 0.4)" class="triangle-float3"></path>
        <path d="M8.897,789.696C33.419,787.543,52.529,770.133,64.026,748.367C74.694,728.171,74.331,705.052,64.494,684.439C52.823,659.983,35.92,634.864,8.897,632.846C-20.845,630.625,-48.061,649.217,-63.218,674.903C-78.638,701.035,-82.152,734.093,-66.011,759.786C-50.682,784.187,-19.809,792.217,8.897,789.696" fill="rgba(28, 83, 142, 0.4)" class="triangle-float3"></path>
    </g>
    <defs>
        <mask id="SvgjsMask1116">
            <rect width="1920" height="1024" fill="#ffffff"></rect>
        </mask>
        <style>
            @keyframes float1 {
                0%{transform: translate(0, 0)}
                50%{transform: translate(-10px, 0)}
                100%{transform: translate(0, 0)}
            }

            .triangle-float1 {
                animation: float1 5s infinite;
            }

            @keyframes float2 {
                0%{transform: translate(0, 0)}
                50%{transform: translate(-5px, -5px)}
                100%{transform: translate(0, 0)}
            }

            .triangle-float2 {
                animation: float2 4s infinite;
            }

            @keyframes float3 {
                0%{transform: translate(0, 0)}
                50%{transform: translate(0, -10px)}
                100%{transform: translate(0, 0)}
            }

            .triangle-float3 {
                animation: float3 6s infinite;
            }
        </style>
    </defs>
</svg>